<?xml version="1.0" encoding="UTF-8"?>
<svg width="212px" height="257px" viewBox="0 0 212 257" version="1.1" xmlns="http://www.w3.org/2000/svg" xmlns:xlink="http://www.w3.org/1999/xlink">
    <!-- Generator: Sketch 53.2 (72643) - https://sketchapp.com -->
    <title>rain</title>
    <desc>Created with Sketch.</desc>
    <g id="rain" stroke="none" stroke-width="1" fill="none" fill-rule="evenodd">
        <g fill="#65809E" id="Shape">
            <path d="M152.566647,155.367955 C118.020147,155.367955 73.2314582,155.12921 44.3432312,155.12921 C-7.63170302,155.12921 -13.433223,85.5109697 28.3711453,70.4222429 C28.1323996,35.4221264 50.6938662,0.159389728 96.4852873,0.159389728 C129.909682,0.159389728 151.635539,18.8054272 161.042119,42.4173748 C228.702644,49.364874 229.562128,155.367955 152.566647,155.367955 L152.566647,155.367955 Z M99.1353643,57.5299762 C85.0493693,71.2101036 72.9210888,90.1665105 71.6557368,104.801621 C69.3160291,131.732133 112.505122,136.435423 115.155199,109.099043 C116.563799,94.7026783 109.162683,74.0273026 99.1592389,57.5299762 L99.1353643,57.5299762 Z M60.2198188,191.084309 C69.5309002,206.45953 76.4545249,225.702432 75.1414237,239.07219 C72.6584686,264.546354 32.4536964,260.153433 34.626282,235.061263 C35.8200104,221.452759 47.0888065,203.809453 60.2198188,191.084309 Z M134.230979,174.372111 C143.54206,189.747333 150.465685,208.990235 149.152584,222.383867 C146.669629,247.834156 106.464857,243.441236 108.637442,218.349065 C109.831171,204.740561 121.099967,187.097256 134.230979,174.372111 Z"></path>
        </g>
    </g>
</svg>