<?xml version="1.0" encoding="UTF-8"?>
<svg width="207px" height="257px" viewBox="0 0 207 257" version="1.1" xmlns="http://www.w3.org/2000/svg" xmlns:xlink="http://www.w3.org/1999/xlink">
    <!-- Generator: Sketch 53.2 (72643) - https://sketchapp.com -->
    <title>rain</title>
    <desc>Created with Sketch.</desc>
    <g id="rain" stroke="none" stroke-width="1" fill="none" fill-rule="evenodd" transform="translate(0.000000, 1.000000)">
        <g id="snow" fill="#FFFFFF" fill-rule="nonzero">
            <path d="M149.431635,153.352245 C115.478818,153.352245 71.4722518,153.127004 43.0683547,153.127004 C-8.00047273,153.127004 -13.7018993,84.6958074 27.3788734,69.860367 C27.1442468,35.4781839 49.314115,0.819141449 94.3225372,0.819141449 C127.160877,0.819141449 148.530669,19.1364407 157.758533,42.3386659 C224.258752,49.173339 225.068214,153.352245 149.431635,153.352245 Z M146.672426,59.5039486 C142.702544,36.5340037 124.948348,15.999483 94.3366147,15.999483 C54.0958053,15.999483 38.8333444,53.1267974 45.1987643,83.0510749 C3.94671413,83.0510749 7.90251874,137.909122 44.0068611,137.909122 C69.3887676,137.909122 120.525637,137.036311 151.076367,137.036311 C204.444535,137.036311 203.8697,54.2459663 146.672426,59.5039486 Z M15.5278835,202.105308 L39.1852843,207.030121 L31.9470535,184.663166 L46.3108944,180.14895 L52.7959739,203.982321 L69.0907918,185.484359 L79.9680813,195.129859 L62.9811149,212.053476 L86.7394052,218.935075 L83.6611041,233.094791 L59.3913278,226.541669 L67.6548769,249.922211 L53.6992863,254.642898 L46.1795035,228.836318 L30.7152638,249.307489 L19.6315029,239.661989 L37.5945159,221.086601 L12.4472361,216.060899 L15.5278835,202.105308 Z M103.26885,177.772183 L109.599076,170.876507 L119.756061,179.789972 L123.524165,166.667305 L132.378973,168.478623 L130.241525,181.920381 L143.42754,179.191674 L146.170325,187.771969 L133.967395,191.995248 L142.782317,201.809679 L136.735989,208.691277 L125.983052,199.015276 L122.700625,212.963828 L113.733196,211.215859 L116.01846,197.011565 L102.529776,200.737435 L99.8479938,192.267415 L111.893724,186.591797 L103.26885,177.772183 Z M141.860234,219.631916 L155.24099,222.255041 L151.815441,209.026793 L160.391044,206.166695 L164.759791,218.813069 L175.315642,209.920721 L181.98373,215.981126 L173.173501,225.715784 L186.06858,229.833481 L184.27134,238.814987 L170.620764,236.679885 L174.250437,249.532731 L165.611486,252.503104 L161.289664,239.157542 L150.670463,249.035322 L144.114996,243.038266 L153.11058,232.097627 L139.823675,228.772968 L141.860234,219.631916 Z" id="Shape"></path>
        </g>
    </g>
</svg>