<?xml version="1.0" encoding="UTF-8"?>
<svg width="201px" height="201px" viewBox="0 0 201 201" version="1.1" xmlns="http://www.w3.org/2000/svg" xmlns:xlink="http://www.w3.org/1999/xlink">
    <!-- Generator: Sketch 53.2 (72643) - https://sketchapp.com -->
    <title>weather_sun</title>
    <desc>Created with Sketch.</desc>
    <g id="Page-1" stroke="none" stroke-width="1" fill="none" fill-rule="evenodd">
        <g id="Desktop-HD" transform="translate(-338.000000, -84.000000)" fill="#FFBF00" fill-rule="nonzero">
            <g id="weather_sun" transform="translate(338.000000, 84.000000)">
                <path d="M166.921159,98.3575438 L165.451433,85.6179487 L198.696365,81.614076 L200.046074,96.1460681 L166.921159,98.3575438 Z M146.465009,50.6573519 L164.833636,33.2331274 L174.932839,44.5561188 L154.189434,59.7865752 L146.465009,50.6573519 Z M108.450845,159.901101 C24.5859428,170.564978 16.3893169,56.8451552 88.9548373,47.6175566 C162.933026,38.2089476 179.157073,150.909603 108.450845,159.901101 Z M90.9341473,62.1456138 C34.7264637,69.291592 41.7681642,154.687213 105.61567,146.569287 C159.448575,139.724337 148.235764,54.8599426 90.9341473,62.1456138 Z M110.447862,33.7643538 L117.432505,0.796839536 L131.1893,4.304901 L121.896774,37.0441846 L110.447862,33.7643538 Z M57.3449015,13.7036725 L72.2802322,9.27285119 L80.2958476,32.2356024 L68.9787587,36.0486271 L57.3449015,13.7036725 Z M9.60339203,46.7872695 L16.9677633,33.4180729 L44.607274,53.3370938 L39.0687473,64.1505014 L9.60339203,46.7872695 Z M26.7206858,107.724835 L1.04277766,109.804488 L0.639439134,93.8539248 L25.626753,95.8233973 L26.7206858,107.724835 Z M46.5610064,150.112763 L21.3395595,174.021885 L11.7027199,160.922236 L38.954632,140.918613 L46.5610064,150.112763 Z M89.1279777,174.909229 L87.7566267,200.697318 L70.6019504,198.885246 L77.8344988,173.002717 L89.1279777,174.909229 Z M152.202254,191.233619 L137.550244,198.255644 L122.5067,168.280705 L135.285646,162.651673 L152.202254,191.233619 Z M185.976445,142.72675 L179.192488,155.891326 L154.895768,140.290978 L160.804186,129.837624 L185.976445,142.72675 Z" id="Shape"></path>
            </g>
        </g>
    </g>
</svg>