<?xml version="1.0" encoding="UTF-8"?>
<svg width="254px" height="221px" viewBox="0 0 254 221" version="1.1" xmlns="http://www.w3.org/2000/svg" xmlns:xlink="http://www.w3.org/1999/xlink">
    <!-- Generator: Sketch 53.2 (72643) - https://sketchapp.com -->
    <title>wather_cloudy</title>
    <desc>Created with Sketch.</desc>
    <g id="Page-1" stroke="none" stroke-width="1" fill="none" fill-rule="evenodd">
        <g id="Desktop-HD" transform="translate(-437.000000, -227.000000)" fill="#FFBF00" fill-rule="nonzero">
            <g id="wather_cloudy" transform="translate(437.000000, 227.000000)">
                <path d="M201.095311,220.211681 C170.392425,220.211681 130.598124,220.008 104.91302,220.008 C58.7324505,220.008 53.5767589,158.126971 90.7231985,144.711564 C90.5364904,117.346087 106.050242,89.787536 137.527543,83.5773676 C129.393007,70.0898238 114.369364,60.7289549 93.3201395,63.4065198 C48.8093354,69.0650505 42.6755476,122.196256 71.9208369,142.961175 L63.8520734,154.341887 C25.3032008,126.804553 33.6456614,55.7154161 91.2748363,48.3871203 C121.827083,44.5023173 142.842361,60.7713886 152.409033,82.2979922 C181.45064,82.722329 200.38879,99.1123362 208.625166,119.824213 C268.764293,126.004678 269.494152,220.211681 201.095311,220.211681 Z M198.60021,135.346452 C195.010322,114.575168 178.95554,96.0061912 151.273932,96.0061912 C114.884933,96.0061912 101.08338,129.579715 106.839509,156.63967 C69.5360643,156.63967 73.1132231,206.246759 105.761693,206.246759 C128.714068,206.246759 174.956166,205.457492 202.582611,205.457492 C250.84243,205.457492 250.322618,130.591759 198.60021,135.346452 Z M150.713807,51.5314557 L169.698634,33.5226038 L180.135197,45.2258115 L158.695582,60.9665835 L150.713807,51.5314557 Z M113.488866,34.0742415 L120.706834,0 L134.926358,3.62595758 L125.321496,37.4604489 L113.488866,34.0742415 Z M58.6072711,13.3411476 L74.040399,8.76043234 L82.3255741,32.4935871 L70.6308531,36.4314322 L58.6072711,13.3411476 Z M9.26327139,47.5320818 L16.8758728,33.7135553 L45.4401016,54.3023747 L39.7157987,65.4772832 L9.26327139,47.5320818 Z M26.9538708,110.512143 L0.413728338,112.661409 L2.84217094e-14,96.1780476 L25.8230133,98.2127423 L26.9538708,110.512143 Z M47.4599445,154.32067 L21.3908159,179.031921 L11.4316322,165.491335 L39.5969844,144.817648 L47.4599445,154.32067 Z" id="Shape"></path>
            </g>
        </g>
    </g>
</svg>