<?xml version="1.0" encoding="utf-8"?>
<svg version="1.1" id="Слой_1" xmlns:x="&ns_extend;" xmlns:i="&ns_ai;" xmlns:graph="&ns_graphs;"
	 xmlns="http://www.w3.org/2000/svg" xmlns:xlink="http://www.w3.org/1999/xlink" xmlns:a="http://ns.adobe.com/AdobeSVGViewerExtensions/3.0/"
	 x="0px" y="0px" width="150px" height="190px" viewBox="0 0 150 190" enable-background="new 0 0 150 190" xml:space="preserve">
<path fill-rule="evenodd" clip-rule="evenodd" d="M109.748,146.881c-14.471,0-33.227-0.096-45.334-0.096
	c-21.766,0-24.195-29.166-6.688-35.489C57.64,98.722,64.587,86.059,78.685,82.72c-3.801-6.485-10.938-11.021-20.98-9.744
	c-20.979,2.667-23.871,27.709-10.086,37.496l-3.803,5.364c-18.17-12.979-14.238-46.485,12.924-49.939
	c14.4-1.831,24.305,5.836,28.814,15.981c0.234-0.004,0.469-0.008,0.705-0.008c13.996,0,23.104,7.807,27.037,17.696
	C141.64,102.479,141.986,146.881,109.748,146.881z M84.755,67.379l8.947-8.488l4.92,5.516l-10.105,7.419L84.755,67.379z
	 M67.21,59.15l3.402-16.06l6.701,1.709l-4.525,15.947L67.21,59.15z M41.343,49.378l7.273-2.159l3.906,11.186l-5.514,1.857
	L41.343,49.378z M18.085,65.494l3.588-6.513l13.463,9.704l-2.697,5.267L18.085,65.494z M26.423,95.178l-12.508,1.013l-0.195-7.769
	l12.172,0.959L26.423,95.178z M36.089,115.826l-12.287,11.647l-4.695-6.382l13.275-9.744L36.089,115.826z M71.064,161.837
	c3.91,6.438,6.793,14.494,6.248,20.109c-1.033,10.663-17.877,8.821-16.965-1.685C60.841,174.565,65.568,167.17,71.064,161.837z
	 M102.064,154.837c3.908,6.438,6.793,14.494,6.25,20.11c-1.035,10.662-17.879,8.821-16.967-1.686
	C91.841,167.565,96.568,160.17,102.064,154.837z"/>
</svg>
 