<?xml version="1.0" encoding="utf-8"?>
<!-- Generator: Adobe Illustrator 16.0.0, SVG Export Plug-In . SVG Version: 6.00 Build 0)  -->
<!DOCTYPE svg PUBLIC "-//W3C//DTD SVG 1.1//EN" "http://www.w3.org/Graphics/SVG/1.1/DTD/svg11.dtd" [
	<!ENTITY ns_flows "http://ns.adobe.com/Flows/1.0/">
	<!ENTITY ns_extend "http://ns.adobe.com/Extensibility/1.0/">
	<!ENTITY ns_ai "http://ns.adobe.com/AdobeIllustrator/10.0/">
	<!ENTITY ns_graphs "http://ns.adobe.com/Graphs/1.0/">
]>
<svg version="1.1" id="Слой_1" xmlns:x="&ns_extend;" xmlns:i="&ns_ai;" xmlns:graph="&ns_graphs;"
	 xmlns="http://www.w3.org/2000/svg" xmlns:xlink="http://www.w3.org/1999/xlink" xmlns:a="http://ns.adobe.com/AdobeSVGViewerExtensions/3.0/"
	 x="0px" y="0px" width="150px" height="190px" viewBox="0 0 150 190" enable-background="new 0 0 150 190" xml:space="preserve">
<path fill-rule="evenodd" clip-rule="evenodd" d="M95.112,147.784c-0.172,0-0.352,0-0.525,0l2.447-6.989
	c21.506-1.241,20.836-35.209-3.098-33.009c-1.693-9.79-9.26-18.542-22.307-18.542c-17.15,0-23.656,15.824-20.943,28.578
	c-17.58,0-15.895,23.381-0.506,23.381c2.527,0,5.686-0.021,9.166-0.052l2.832-24.827l22.475,2.719l-4.338,16.868l10.637,1.53
	l-23.82,50.003l2.902-39.725l-9.764-0.023l-0.002,0.009c-3.812-0.009-7.373-0.016-10.49-0.016c-21.766,0-24.195-29.166-6.688-35.489
	c-0.1-14.654,9.35-29.426,28.533-29.426c13.996,0,23.105,7.807,27.037,17.696C127.005,103.382,127.351,147.784,95.112,147.784z"/>
</svg>
